<svg width="152" height="152" viewBox="0 0 152 152" fill="none" xmlns="http://www.w3.org/2000/svg">
<rect width="152" height="152" fill="#060510"/>
<path fill-rule="evenodd" clip-rule="evenodd" d="M71.9999 38C71.9999 34.1338 68.8658 31 64.9999 31H41.9999C41.9999 32.8384 42.3568 34.6592 43.0504 36.3574C43.7438 38.0562 44.7604 39.5996 46.0416 40.8994C47.3234 42.1997 48.8444 43.2305 50.5189 43.9346C52.1932 44.6377 53.9877 45 55.7999 45H64.9999V95.5L65.0553 95.3813C65.7584 104.124 73.076 111 81.9999 111C91.3888 111 98.9999 103.389 98.9999 94C98.9999 84.6113 91.3888 77 81.9999 77C78.2621 77 74.806 78.2065 71.9999 80.251V38ZM88.6981 94C88.6981 97.6992 85.6991 100.698 81.9999 100.698C78.3007 100.698 75.3016 97.6992 75.3016 94C75.3016 90.3008 78.3007 87.3018 81.9999 87.3018C85.6991 87.3018 88.6981 90.3008 88.6981 94Z" fill="white"/>
<path d="M75 67.9165C77.2324 67.3188 79.5791 67 82 67C96.9116 67 109 79.0884 109 94C109 108.912 96.9116 121 82 121C67.0884 121 55 108.912 55 94C55 87.5703 57.2476 81.665 61 77.0278V94H61.0068C61.0068 105.594 70.4058 114.993 82 114.993C93.5942 114.993 102.993 105.594 102.993 94C102.993 82.4058 93.5942 73.0068 82 73.0068C79.5454 73.0068 77.1895 73.4282 75 74.2021V67.9165Z" fill="#691372"/>
</svg>
